<svg xmlns="http://www.w3.org/2000/svg" width="400" height="240" viewBox="0 0 400 240" font-family="ui-sans-serif, system-ui, sans-serif">
  <rect width="400" height="240" fill="#18181b"/>

  <!-- Shelled peanuts stream past one at a time, fast -->
  <line x1="16" y1="112" x2="190" y2="112" stroke="#52525b" stroke-width="3" stroke-linecap="round"/>
  <path d="M18 96 H32 M14 100 H32 M18 104 H32" stroke="#e4e4e7" stroke-width="1.5" stroke-linecap="round" opacity=".5"/>
  <g transform="translate(44 100) rotate(0) scale(0.75)" opacity="1"><path d="M-13 1 C -13 -6, -5 -9, 2 -8 C 9 -7, 14 -4, 13 1 C 12 6, 5 8, -2 8 C -9 8, -13 6, -13 1 Z" fill="#c98b62"/><path d="M-8 -4 C -3 -6, 3 -6, 7 -4" fill="none" stroke="#e3b38f" stroke-width="2" stroke-linecap="round" opacity=".8"/><circle cx="11" cy="1" r="1.8" fill="#9c6440"/></g>
  <path d="M56 96 H70 M52 100 H70 M56 104 H70" stroke="#e4e4e7" stroke-width="1.5" stroke-linecap="round" opacity=".5"/>
  <g transform="translate(82 100) rotate(0) scale(0.75)" opacity="1"><path d="M-13 1 C -13 -6, -5 -9, 2 -8 C 9 -7, 14 -4, 13 1 C 12 6, 5 8, -2 8 C -9 8, -13 6, -13 1 Z" fill="#c98b62"/><path d="M-8 -4 C -3 -6, 3 -6, 7 -4" fill="none" stroke="#e3b38f" stroke-width="2" stroke-linecap="round" opacity=".8"/><circle cx="11" cy="1" r="1.8" fill="#9c6440"/><ellipse cx="3" cy="2" rx="4.5" ry="3.2" fill="#4a3322"/><ellipse cx="-7" cy="-1" rx="2.2" ry="1.8" fill="#4a3322"/></g>
  <path d="M94 96 H108 M90 100 H108 M94 104 H108" stroke="#e4e4e7" stroke-width="1.5" stroke-linecap="round" opacity=".5"/>
  <g transform="translate(120 100) rotate(0) scale(0.75)" opacity="1"><path d="M-13 1 C -13 -6, -5 -9, 2 -8 C 9 -7, 14 -4, 13 1 C 12 6, 5 8, -2 8 C -9 8, -13 6, -13 1 Z" fill="#c98b62"/><path d="M-8 -4 C -3 -6, 3 -6, 7 -4" fill="none" stroke="#e3b38f" stroke-width="2" stroke-linecap="round" opacity=".8"/><circle cx="11" cy="1" r="1.8" fill="#9c6440"/></g>
  <text x="82" y="134" font-size="12" text-anchor="middle" fill="#a1a1aa">peanuts</text>

  <!-- High-speed camera images each one -->
  <polygon points="170,52 146,100 194,100" fill="#818cf8" opacity=".12"/>
  <rect x="154" y="22" width="32" height="22" rx="3" fill="#3f3f46" stroke="#818cf8" stroke-width="2"/><rect x="164" y="44" width="12" height="8" rx="2" fill="#52525b" stroke="#818cf8" stroke-width="2"/>
  <path d="M144 96 H158 M140 100 H158 M144 104 H158" stroke="#e4e4e7" stroke-width="1.5" stroke-linecap="round" opacity=".5"/>
  <g transform="translate(170 100) rotate(0) scale(0.75)" opacity="1"><path d="M-13 1 C -13 -6, -5 -9, 2 -8 C 9 -7, 14 -4, 13 1 C 12 6, 5 8, -2 8 C -9 8, -13 6, -13 1 Z" fill="#c98b62"/><path d="M-8 -4 C -3 -6, 3 -6, 7 -4" fill="none" stroke="#e3b38f" stroke-width="2" stroke-linecap="round" opacity=".8"/><circle cx="11" cy="1" r="1.8" fill="#9c6440"/><ellipse cx="3" cy="2" rx="4.5" ry="3.2" fill="#4a3322"/><ellipse cx="-7" cy="-1" rx="2.2" ry="1.8" fill="#4a3322"/></g>
  <rect x="148" y="86" width="44" height="28" rx="3" fill="none" stroke="#818cf8" stroke-width="2"/>
  <text x="146" y="38" font-size="12" text-anchor="end" fill="#a5b4fc">camera</text>

  <!-- Neural-network classification -->
  <path d="M188 33 C 230 33, 240 60, 262 66" fill="none" stroke="#818cf8" stroke-width="2" opacity=".6"/>
  <g stroke="#6366f1" stroke-width="1.2" opacity=".7">
    <line x1="270" y1="52" x2="296" y2="45"/>
    <line x1="270" y1="52" x2="296" y2="59"/>
    <line x1="270" y1="52" x2="296" y2="73"/>
    <line x1="270" y1="52" x2="296" y2="87"/>
    <line x1="270" y1="66" x2="296" y2="45"/>
    <line x1="270" y1="66" x2="296" y2="59"/>
    <line x1="270" y1="66" x2="296" y2="73"/>
    <line x1="270" y1="66" x2="296" y2="87"/>
    <line x1="270" y1="80" x2="296" y2="45"/>
    <line x1="270" y1="80" x2="296" y2="59"/>
    <line x1="270" y1="80" x2="296" y2="73"/>
    <line x1="270" y1="80" x2="296" y2="87"/>
    <line x1="296" y1="45" x2="322" y2="59"/>
    <line x1="296" y1="45" x2="322" y2="73"/>
    <line x1="296" y1="59" x2="322" y2="59"/>
    <line x1="296" y1="59" x2="322" y2="73"/>
    <line x1="296" y1="73" x2="322" y2="59"/>
    <line x1="296" y1="73" x2="322" y2="73"/>
    <line x1="296" y1="87" x2="322" y2="59"/>
    <line x1="296" y1="87" x2="322" y2="73"/>
  </g>
  <g fill="#312e81" stroke="#a5b4fc" stroke-width="1.5">
    <circle cx="270" cy="52" r="5"/>
    <circle cx="270" cy="66" r="5"/>
    <circle cx="270" cy="80" r="5"/>
    <circle cx="296" cy="45" r="5"/>
    <circle cx="296" cy="59" r="5"/>
    <circle cx="296" cy="73" r="5"/>
    <circle cx="296" cy="87" r="5"/>
    <circle cx="322" cy="59" r="5"/>
    <circle cx="322" cy="73" r="5"/>
  </g>
  <text x="296" y="30" font-size="12" text-anchor="middle" fill="#a1a1aa">classify</text>

  <!-- Sorting: air jet blows defects into the reject bin; good ones drop into the good bin -->
  <path d="M194 112 C 206 120, 210 150, 210 190" fill="none" stroke="#71717a" stroke-width="1.5" stroke-dasharray="3 4"/>
  <path d="M322 80 V 156 H 180" fill="none" stroke="#f87171" stroke-width="1.5" stroke-dasharray="4 3" opacity=".8"/>
  <path d="M164 150 h16 l8 6 l-8 6 h-16 z" fill="#52525b" stroke="#f87171" stroke-width="2"/>
  <path d="M192 151 l9 -3 M192 156 h11 M192 161 l9 3" stroke="#f87171" stroke-width="1.8" stroke-linecap="round"/>
  <g transform="translate(216 160) rotate(70) scale(0.7)" opacity="1"><path d="M-13 1 C -13 -6, -5 -9, 2 -8 C 9 -7, 14 -4, 13 1 C 12 6, 5 8, -2 8 C -9 8, -13 6, -13 1 Z" fill="#c98b62"/><path d="M-8 -4 C -3 -6, 3 -6, 7 -4" fill="none" stroke="#e3b38f" stroke-width="2" stroke-linecap="round" opacity=".8"/><circle cx="11" cy="1" r="1.8" fill="#9c6440"/><ellipse cx="3" cy="2" rx="4.5" ry="3.2" fill="#4a3322"/><ellipse cx="-7" cy="-1" rx="2.2" ry="1.8" fill="#4a3322"/></g>
  <path d="M224 162 C 250 166, 272 176, 282 192" fill="none" stroke="#f87171" stroke-width="1.5" stroke-dasharray="3 3"/>
  <g transform="translate(208 132) rotate(90) scale(0.7)" opacity="0.9"><path d="M-13 1 C -13 -6, -5 -9, 2 -8 C 9 -7, 14 -4, 13 1 C 12 6, 5 8, -2 8 C -9 8, -13 6, -13 1 Z" fill="#c98b62"/><path d="M-8 -4 C -3 -6, 3 -6, 7 -4" fill="none" stroke="#e3b38f" stroke-width="2" stroke-linecap="round" opacity=".8"/><circle cx="11" cy="1" r="1.8" fill="#9c6440"/></g>
  <path d="M188 194 V 214 H 232 V 194" fill="none" stroke="#5eead4" stroke-width="2.5"/>
  <g transform="translate(202 206) rotate(10) scale(0.75)" opacity="1"><path d="M-13 1 C -13 -6, -5 -9, 2 -8 C 9 -7, 14 -4, 13 1 C 12 6, 5 8, -2 8 C -9 8, -13 6, -13 1 Z" fill="#c98b62"/><path d="M-8 -4 C -3 -6, 3 -6, 7 -4" fill="none" stroke="#e3b38f" stroke-width="2" stroke-linecap="round" opacity=".8"/><circle cx="11" cy="1" r="1.8" fill="#9c6440"/></g>
  <g transform="translate(219 207) rotate(-20) scale(0.75)" opacity="1"><path d="M-13 1 C -13 -6, -5 -9, 2 -8 C 9 -7, 14 -4, 13 1 C 12 6, 5 8, -2 8 C -9 8, -13 6, -13 1 Z" fill="#c98b62"/><path d="M-8 -4 C -3 -6, 3 -6, 7 -4" fill="none" stroke="#e3b38f" stroke-width="2" stroke-linecap="round" opacity=".8"/><circle cx="11" cy="1" r="1.8" fill="#9c6440"/></g>
  <text x="210" y="232" font-size="12" text-anchor="middle" fill="#5eead4">good</text>
  <path d="M262 194 V 214 H 306 V 194" fill="none" stroke="#f87171" stroke-width="2.5"/>
  <g transform="translate(276 206) rotate(20) scale(0.75)" opacity="1"><path d="M-13 1 C -13 -6, -5 -9, 2 -8 C 9 -7, 14 -4, 13 1 C 12 6, 5 8, -2 8 C -9 8, -13 6, -13 1 Z" fill="#c98b62"/><path d="M-8 -4 C -3 -6, 3 -6, 7 -4" fill="none" stroke="#e3b38f" stroke-width="2" stroke-linecap="round" opacity=".8"/><circle cx="11" cy="1" r="1.8" fill="#9c6440"/><ellipse cx="3" cy="2" rx="4.5" ry="3.2" fill="#4a3322"/><ellipse cx="-7" cy="-1" rx="2.2" ry="1.8" fill="#4a3322"/></g>
  <g transform="translate(293 207) rotate(-15) scale(0.75)" opacity="1"><path d="M-13 1 C -13 -6, -5 -9, 2 -8 C 9 -7, 14 -4, 13 1 C 12 6, 5 8, -2 8 C -9 8, -13 6, -13 1 Z" fill="#c98b62"/><path d="M-8 -4 C -3 -6, 3 -6, 7 -4" fill="none" stroke="#e3b38f" stroke-width="2" stroke-linecap="round" opacity=".8"/><circle cx="11" cy="1" r="1.8" fill="#9c6440"/><ellipse cx="3" cy="2" rx="4.5" ry="3.2" fill="#4a3322"/><ellipse cx="-7" cy="-1" rx="2.2" ry="1.8" fill="#4a3322"/></g>
  <text x="284" y="232" font-size="12" text-anchor="middle" fill="#f87171">defect</text>
</svg>
